<?xml version="1.0" encoding="UTF-8" standalone="no"?>
<!DOCTYPE svg PUBLIC "-//W3C//DTD SVG 1.1//EN" "http://www.w3.org/Graphics/SVG/1.1/DTD/svg11.dtd">
<svg width="100%" height="100%" viewBox="0 0 26 26" version="1.1" xmlns="http://www.w3.org/2000/svg" xmlns:xlink="http://www.w3.org/1999/xlink" xml:space="preserve" xmlns:serif="http://www.serif.com/" style="fill-rule:evenodd;clip-rule:evenodd;stroke-linejoin:round;stroke-miterlimit:2;">
    <g transform="matrix(0.0725134,0,0,0.0829667,-21.7753,-26.269)">
        <path id="Proof-1" serif:id="Proof 1" d="M361.092,316.621L598.475,316.621C607.583,316.621 614.272,317.688 618.541,319.823C622.811,321.958 625.657,325.302 627.08,329.856C628.503,334.411 629.215,340.388 629.215,347.788C629.215,355.189 628.503,361.095 627.08,365.506C625.657,369.918 623.238,372.978 619.822,374.686C614.699,377.248 607.441,378.528 598.048,378.528L516.501,378.528L516.501,593.283C516.501,599.829 516.288,604.668 515.861,607.799C515.434,610.93 514.153,614.559 512.018,618.686C509.883,622.813 506.112,625.731 500.704,627.438C495.296,629.146 488.18,630 479.357,630C470.533,630 463.488,629.146 458.223,627.438C452.957,625.731 449.257,622.813 447.122,618.686C444.987,614.559 443.707,610.859 443.28,607.585C442.853,604.312 442.639,599.402 442.639,592.856L442.639,378.528L360.665,378.528C351.557,378.528 344.868,377.461 340.599,375.326C336.33,373.192 333.483,369.847 332.06,365.293C330.637,360.739 329.925,354.762 329.925,347.361C329.925,339.961 330.637,334.055 332.06,329.643C333.483,325.231 335.903,322.171 339.318,320.464C344.442,317.902 351.7,316.621 361.092,316.621Z" style="fill-rule:nonzero;"/>
        <clipPath id="_clip1">
            <path id="Proof-11" serif:id="Proof 1" d="M361.092,316.621L598.475,316.621C607.583,316.621 614.272,317.688 618.541,319.823C622.811,321.958 625.657,325.302 627.08,329.856C628.503,334.411 629.215,340.388 629.215,347.788C629.215,355.189 628.503,361.095 627.08,365.506C625.657,369.918 623.238,372.978 619.822,374.686C614.699,377.248 607.441,378.528 598.048,378.528L516.501,378.528L516.501,593.283C516.501,599.829 516.288,604.668 515.861,607.799C515.434,610.93 514.153,614.559 512.018,618.686C509.883,622.813 506.112,625.731 500.704,627.438C495.296,629.146 488.18,630 479.357,630C470.533,630 463.488,629.146 458.223,627.438C452.957,625.731 449.257,622.813 447.122,618.686C444.987,614.559 443.707,610.859 443.28,607.585C442.853,604.312 442.639,599.402 442.639,592.856L442.639,378.528L360.665,378.528C351.557,378.528 344.868,377.461 340.599,375.326C336.33,373.192 333.483,369.847 332.06,365.293C330.637,360.739 329.925,354.762 329.925,347.361C329.925,339.961 330.637,334.055 332.06,329.643C333.483,325.231 335.903,322.171 339.318,320.464C344.442,317.902 351.7,316.621 361.092,316.621Z" clip-rule="nonzero"/>
        </clipPath>
        <g clip-path="url(#_clip1)">
            <g id="Gay_Pride_Flag.svg" transform="matrix(0.386084,0,0,0.67422,479.919,473.311)">
                <g transform="matrix(1,0,0,1,-388.5,-240)">
                    <rect x="0" y="0" width="777" height="480" style="fill:rgb(119,0,136);fill-rule:nonzero;"/>
                    <rect x="0" y="0" width="777" height="400" style="fill:rgb(0,76,255);fill-rule:nonzero;"/>
                    <rect x="0" y="0" width="777" height="320" style="fill:rgb(2,129,33);fill-rule:nonzero;"/>
                    <rect x="0" y="0" width="777" height="240" style="fill:rgb(255,238,0);fill-rule:nonzero;"/>
                    <rect x="0" y="0" width="777" height="160" style="fill:rgb(255,141,0);fill-rule:nonzero;"/>
                    <rect x="0" y="0" width="777" height="80" style="fill:rgb(229,0,0);fill-rule:nonzero;"/>
                </g>
            </g>
        </g>
    </g>
</svg>
